<?xml version="1.0" encoding="utf-8"?>
<!-- Svg Vector Icons : http://www.onlinewebfonts.com/icon -->
<!DOCTYPE svg PUBLIC "-//W3C//DTD SVG 1.1//EN" "http://www.w3.org/Graphics/SVG/1.1/DTD/svg11.dtd">
<svg version="1.1" xmlns="http://www.w3.org/2000/svg" xmlns:xlink="http://www.w3.org/1999/xlink" x="0px" y="0px" viewBox="0 0 1000 1000" enable-background="new 0 0 1000 1000" xml:space="preserve">
<metadata> Svg Vector Icons : http://www.onlinewebfonts.com/icon </metadata>
<g><g transform="translate(0.000000,512.000000) scale(0.100000,-0.100000)"><path d="M1657.5,4996.6c-174.4-65.2-348.9-251.1-396.8-421.7c-15.3-55.6-19.2-1294-15.3-4495.3l5.7-4418.6l44.1-82.4c65.2-120.8,178.3-237.7,295.2-302.9L1692-4780h3306.8h3306.8l101.6,57.5c134.2,72.8,260.7,214.7,310.5,347l38.3,105.4l-3.8,4422.5l-5.8,4422.5l-44.1,92c-59.4,116.9-187.9,245.4-304.8,304.8l-92,44.1l-3287.6,3.8C2251.8,5021.5,1718.8,5017.6,1657.5,4996.6z M3695.2,3884.7V3070H2631.3H1567.4v705.4c0,653.7,3.8,709.3,38.3,786c19.2,44.1,38.3,80.5,42.2,80.5c3.8,0,40.2,13.4,82.4,28.8c63.3,21.1,249.2,26.8,1021.7,28.8h943.2V3884.7z M5976.4,3884.7V3070h-977.7h-977.7v814.7v814.7h977.7h977.7V3884.7z M8307.5,4657.3c116.9-63.3,122.7-107.3,122.7-887.6V3070H7366.2H6302.3v814.7v816.6l973.8-5.8C8150.3,4689.8,8253.8,4686,8307.5,4657.3z M8424.4-763.9c5.8-3299.1,3.8-3502.3-28.8-3565.6c-19.2-38.3-61.3-80.5-99.7-99.7c-63.3-32.6-260.7-34.5-3297.2-34.5c-3036.5,0-3233.9,1.9-3297.2,34.5c-38.3,19.2-80.5,61.3-99.7,99.7c-32.6,63.3-34.5,274.1-34.5,3567.5v3500.4l3427.5-1.9l3425.6-1.9L8424.4-763.9z"/><path d="M2545,4509.6c-164.9-53.7-341.2-205.1-423.7-366.1c-38.3-70.9-46-115-46-258.8c0-207,42.2-312.5,185.9-456.2c264.5-264.5,655.6-260.7,908.6,9.6c256.9,276,255,634.5-9.6,897.1c-128.4,128.4-249.2,180.2-423.6,185.9C2658.1,4523.1,2571.9,4519.2,2545,4509.6z M2890.1,4158.8c109.3-74.8,139.9-134.2,141.9-268.4c3.8-216.6-109.3-331.6-324-331.6c-214.7,1.9-327.8,124.6-312.5,347c9.6,139.9,47.9,209,151.4,260.7C2642.8,4216.3,2809.6,4212.5,2890.1,4158.8z"/><path d="M7084.4,4498.2c-103.5-38.3-231.9-132.3-301-218.5c-266.5-335.5-151.4-789.8,247.3-991.1c149.5-76.7,347-76.7,502.3-3.8c134.2,63.3,278,203.2,341.2,331.6c40.2,80.5,47.9,122.7,47.9,268.4c0,201.3-32.6,279.9-178.3,437.1c-128.4,138-279.9,205.1-454.3,203.2C7216.7,4525,7122.8,4511.6,7084.4,4498.2z M7485.1,4151.2c78.6-57.5,120.8-153.3,120.8-278c0-118.8-42.2-201.3-139.9-274.1c-74.8-55.6-264.5-55.6-358.5-1.9c-97.8,59.4-143.8,149.5-143.8,291.4c0,132.3,32.6,193.6,145.7,270.3c55.6,38.3,84.4,44.1,193.6,38.3C7395,4191.4,7446.8,4178,7485.1,4151.2z"/><path d="M4586.6,2052.1c-640.3-99.7-1173.2-373.8-1650.5-849.2C2497.1,762,2242.2,300,2111.8-303.9c-51.8-232-51.8-878-1.9-1111.8c84.4-394.9,270.3-820.5,498.4-1144.4c151.5-210.9,496.5-559.8,684.4-690.1c471.6-324,924-492.7,1468.4-544.4c895.2-88.2,1865.2,316.3,2459.5,1023.7c329.7,393,532.9,793.6,647.9,1278.6c70.9,299,82.4,784,28.7,1102.3c-107.4,624.9-371.9,1127.2-835.8,1593c-433.2,431.3-876.1,678.6-1466.5,816.6C5405.2,2061.7,4784.1,2084.7,4586.6,2052.1z M5545.1,1699.4c517.6-115,945.1-347,1305.5-707.4c370-371.9,600-805.1,720.8-1363c38.3-184,32.6-824.3-9.6-1025.6c-113.1-531-360.4-979.6-738-1345.7c-655.6-634.5-1556.6-874.1-2472.9-657.5c-960.4,230-1702.3,1004.5-1915.1,2003.2c-49.8,230-47.9,843.5,0,1069.7C2571.9,294.2,2903.5,832.9,3377,1199c347,268.4,745.7,446.7,1142.5,509.9c78.6,11.5,157.2,24.9,172.5,28.8C4770.7,1756.9,5422.4,1728.1,5545.1,1699.4z"/><path d="M4619.2,1394.6C3727.8,1224,3009,554.9,2782.7-317.3c-69-260.7-84.3-653.7-36.4-920.2c61.3-341.2,232-745.7,408.3-962.3c209-256.9,247.3-301,318.2-364.2c278-256.9,663.3-454.3,1046.7-540.6c1062-237.7,2170,354.6,2597.5,1391.7c281.8,678.6,201.3,1466.5-210.9,2093.3c-143.8,216.6-448.6,523.3-667.1,665.2c-209,138-454.3,247.3-697.8,312.5C5307.4,1417.6,4845.4,1436.7,4619.2,1394.6z M5345.7,1066.8c830-143.8,1458.8-784,1587.3-1612.2l21.1-136.1L6772-873.2c-205.1-216.6-393-356.5-628.8-465.8c-291.4-136.1-396.8-155.3-1010.2-172.5c-626.9-19.2-749.5-40.3-1046.7-180.2c-218.5-103.5-327.8-176.4-483.1-325.9c-67.1-63.3-126.5-107.3-134.2-97.8c-293.3,410.2-402.6,716.9-419.8,1178.9c-7.7,235.8-3.8,308.6,32.6,479.2c162.9,795.5,761,1380.2,1558.5,1524C4828.2,1101.3,5152.1,1101.3,5345.7,1066.8z M6869.7-1434.9c-207-720.8-810.9-1247.9-1564.2-1363c-208.9-32.6-605.8-13.4-805.1,38.3c-249.2,65.2-540.6,210.8-655.6,329.7l-95.9,97.8l65.2,67.1c34.5,36.4,95.8,92,136.1,124.6l72.9,59.4l44.1-42.2c53.7-51.8,162.9-53.7,224.3-3.8c30.7,24.9,44.1,57.5,47.9,118.8l3.8,84.4l130.4,34.5c72.8,19.2,245.4,38.3,387.2,46l256.9,11.5l-59.4-59.4c-111.2-111.2-49.8-272.2,103.5-272.2c151.4,0,214.7,161,107.3,270.3l-55.6,55.6h166.8c310.6,0,646,82.4,945.1,231.9l145.7,72.8l11.5-46c13.4-49.9,97.8-105.4,161-105.4c57.5,0,134.2,70.9,147.6,136.1c9.6,46,3.8,72.8-28.8,118.9l-44.1,57.5l93.9,82.4C6929.2-1189.5,6934.9-1206.8,6869.7-1434.9z"/><path d="M4692.1,739c-385.3-82.4-732.3-293.3-968.1-586.6C3530.4-93,3480.5-238.7,3566.8-317.3c109.3-99.7,210.9-63.3,302.9,113.1C3955.9-45.1,4186,186.9,4347,277c159.1,86.3,350.8,145.7,525.2,159.1c195.5,15.3,218.5,21.1,253,76.7c47.9,70.9,38.3,162.9-21.1,214.7c-40.3,34.5-72.8,42.2-168.7,40.3C4870.3,767.7,4761.1,754.3,4692.1,739z"/><path d="M3455.6-556.9c-147.6-84.4-93.9-302.9,74.8-302.9c49.8,0,76.7,13.4,115,59.4c65.2,76.7,63.3,141.9-5.8,210.9C3580.2-532,3518.9-520.5,3455.6-556.9z"/><path d="M6078-1856.6c-67.1-28.8-107.3-105.4-93.9-182.1c15.3-80.5,74.8-124.6,166.8-124.6c132.3,0,199.4,155.3,109.3,256.9C6210.3-1850.9,6139.4-1831.7,6078-1856.6z"/><path d="M4565.5-2381.9c-111.2-93.9-38.3-279.9,109.3-279.9c82.4,0,151.4,74.8,151.4,162.9C4826.2-2357,4672.9-2287.9,4565.5-2381.9z"/><path d="M5545.1-2383.8c-99.7-97.8-30.7-278,103.5-278c88.2,0,162.9,74.8,162.9,162.9C5811.6-2357,5642.9-2284.1,5545.1-2383.8z"/></g></g>
</svg>